<?xml version="1.0" encoding="utf-8"?>
<!-- Generator: Adobe Illustrator 24.1.2, SVG Export Plug-In . SVG Version: 6.00 Build 0)  -->
<svg version="1.1" id="Layer_1" xmlns="http://www.w3.org/2000/svg" xmlns:xlink="http://www.w3.org/1999/xlink" x="0px" y="0px"
	 viewBox="0 0 1920 500" style="enable-background:new 0 0 1920 500;" xml:space="preserve">
<style type="text/css">
	.st0{fill:#FEFDFE;}
	.st1{fill:#FE023D;}
	.st2{fill:#FE7F9C;}
	.st3{fill:#FE013D;}
	.st4{fill:#FEFDFD;}
	.st5{fill:#FEFCFC;}
</style>
<g>
	<g>
		<path class="st0" d="M1243,156.01c0,87.65,0,175.29,0,262.99c-360.33,0-720.67,0-1081,0.01c0-29.99,0-59.98,0-89.97
			c0.31,0.36,0.75,0.68,0.9,1.09c5.99,16.69,18.26,24.56,35.74,22.88c23.43-2.25,38.15-27.1,27.81-47.25
			c-6.49-12.64-17.55-17.94-31.28-17.15c-14.74,0.85-25.26,8.38-31.13,22.1c-0.63,1.46-1.35,2.89-2.03,4.33
			c0-71.01,0-142.02,0-213.03c58.33,0,116.67,0,175,0c-0.18,0.24-0.23,0.51-0.15,0.8c-4.09,17.07-8.18,34.14-12.39,51.71
			c-6.66,0-13.26,0-20.01,0c-3,13.52-5.89,26.54-8.91,40.15c7.04,0,13.15,0,19.59,0c-0.18,1.71-0.19,3.01-0.47,4.25
			c-4.4,19.13-9.04,38.2-13.19,57.38c-3.66,16.88-7.81,33.76-9.88,50.86c-2.61,21.62,9.36,38.09,30.24,43.89
			c17.71,4.92,35.53,4.17,53.34,0.03c4.4-1.02,6.69-2.93,7.55-7.63c1.84-10.06,4.38-20,6.74-30.42c-3.47,0-6.29,0.12-9.1-0.03
			c-2.81-0.16-5.67-0.32-8.4-0.94c-8.25-1.88-12.12-6.82-12.09-15.3c0.01-2.48,0.3-5,0.84-7.42c6.77-30.36,13.64-60.69,20.36-91.05
			c0.69-3.1,2.18-3.84,5.14-3.78c9.46,0.17,18.93,0.06,28.65,0.06c2.99-13.39,5.92-26.45,9-40.25c-11.09,0-21.48,0-32.28,0
			c0.48-2.28,0.8-3.9,1.15-5.51c3.39-15.25,6.79-30.49,10.19-45.74c0.02-0.35,0.05-0.71,0.07-1.06c280,0,560,0,840,0
			c0,17.67,0,35.34,0,53.01c-12.31-0.18-24.62-0.22-36.92-0.62c-4.01-0.13-7.18,0.96-9.76,3.87c-8.91,10.09-18.16,19.92-26.55,30.43
			c-6.69,8.37-12.31,17.6-18.7,26.88c-0.85-1.86-1.51-3.34-2.19-4.81c-6.59-14.15-12.87-28.46-19.88-42.4
			c-4.07-8.08-11.07-13.39-20.16-14.98c-15.26-2.68-30.2-1.38-44.48,4.99c-1.33,0.59-2.95,1.94-3.24,3.21
			c-2.52,10.8-4.76,21.67-7.13,32.75c1.63,0.09,2.8,0.36,3.91,0.19c8.49-1.32,12.92,2.85,16.41,10.3
			c7.75,16.56,16.25,32.77,24.61,49.03c1.26,2.45,1.24,4.13-0.54,6.22c-6.58,7.74-12.73,15.86-19.58,23.35
			c-11.17,12.22-23.1,23.57-39.3,29.11c-1.01,0.35-2.14,1.65-2.39,2.7c-2.8,11.78-5.43,23.59-8.21,35.8
			c12.23,0,24.06-0.32,35.85,0.14c5.64,0.22,9.86-1.2,13.51-5.46c4.1-4.8,8.96-8.98,12.79-13.97c10.23-13.3,20.08-26.89,30.27-40.62
			c0.88,1.82,1.88,4.04,2.99,6.21c6.8,13.31,13.33,26.77,20.54,39.86c3.87,7.03,10.15,12.01,17.99,14.26
			c15.97,4.59,31.62,3.42,46.68-3.74c1.35-0.64,2.93-2.04,3.26-3.37c2.52-10.27,4.75-20.61,7.06-30.92
			c-0.7-0.18-1.02-0.32-1.34-0.34c-0.83-0.05-1.68-0.16-2.5-0.04c-8.9,1.32-13.68-3.2-17.31-10.89
			c-7.89-16.68-16.36-33.09-24.72-49.56c-1.28-2.52-1.49-4.35,0.57-6.65c5.56-6.2,10.67-12.79,16.29-18.94
			c10.47-11.46,21.06-23.11,35.62-29.27c6.47-2.74,8.73-6.44,9.83-12.82C1237.97,175.18,1240.71,165.63,1243,156.01z M671.97,331.17
			c11.76,10.04,25.04,14.3,39.45,15.39c28.3,2.15,53.97-4.63,73.8-25.63c33.64-35.61,43.49-78.92,36.17-126.2
			c-3.27-21.14-15.83-36.69-37.69-42.05c-23.95-5.87-45.03,1.38-63.91,16.13c-5.45,4.26-10.35,9.22-15.73,14.06
			c-0.29-1.46-0.58-2.72-0.77-3.99c-2.44-15.77-10.48-24.04-26.27-26.08c-13.68-1.77-27.25-0.28-40.59,3.05
			c-12.45,3.11-12.45,3.22-15.2,15.62c-1.67,7.52-3.27,15.05-5.01,23.08c3.3,0,5.78-0.03,8.27,0.01c7.59,0.1,10.78,4.23,9.08,11.69
			c-3.24,14.27-6.45,28.54-9.69,42.81c-8.68,38.27-17.37,76.55-26.06,114.82c-1.86,8.19-6.8,12.14-15.16,12.15
			c-2.82,0-5.64,0-8.69,0c-2.63,11.84-5.21,23.43-7.86,35.35c36.6,0,72.55,0,108.86,0c2.74-11.67,5.46-23.28,8.31-35.44
			c-7.39,0-14.3,0-21.64,0C665.13,360.88,668.47,346.36,671.97,331.17z M893.97,331.44c3.21,2.19,5.71,4.1,8.41,5.69
			c2.85,1.68,5.74,3.53,8.87,4.5c34.25,10.61,66.77,7.18,93.11-18.1c36.75-35.27,46.59-80.31,38.99-129.27
			c-3.29-21.2-16.25-36.41-38-41.75c-18.11-4.44-35.62-1.35-51.37,8.37c-9.93,6.13-18.82,13.95-28.05,20.92
			c-0.07-0.35-0.32-1.6-0.53-2.85c-2.61-16.1-10.52-24.33-26.72-26.16c-17.08-1.93-33.89,0.23-50.06,6.18
			c-1.54,0.57-2.95,2.93-3.4,4.71c-2.17,8.54-4,17.16-5.92,25.76c-0.34,1.53-0.54,3.1-0.88,5.11c3.07,0,5.39-0.02,7.71,0
			c7.99,0.07,11.28,4.07,9.54,11.75c-11.94,52.7-23.9,105.39-35.88,158.08c-1.71,7.54-6.91,11.63-14.56,11.65
			c-2.98,0.01-5.97,0-9.18,0c-2.61,11.84-5.17,23.41-7.79,35.27c36.71,0,72.61,0,108.85,0c2.74-11.74,5.43-23.29,8.23-35.29
			c-7.47,0-14.27,0-21.59,0C887.17,361.08,890.5,346.56,893.97,331.44z M521.75,238.11c-22.25-5.26-44.05-5.78-65.86-1.04
			c-32.05,6.97-51.11,26.68-55.4,56.96c-3.54,24.97,6.58,45.81,26.63,54.5c11.49,4.98,23.59,5.59,35.79,4.03
			c17.37-2.23,31.75-10.36,43.92-23.63c3.12,13.16,11.14,21.18,23.87,23.73c16.65,3.33,32.79,0.91,48.24-6.02
			c1.35-0.61,2.99-1.96,3.32-3.26c2.45-9.94,4.61-19.95,6.96-30.35c-2.57,0-4.55,0-6.54,0c-7.69-0.02-10.68-3.85-8.94-11.52
			c6.57-29.03,13.54-57.97,19.6-87.1c4.96-23.84-3.97-43.07-23.81-53.02c-5.45-2.73-11.33-5.05-17.27-6.28
			c-37.19-7.7-73.79-4.48-109.78,6.97c-1.42,0.45-2.82,2.58-3.26,4.19c-1.61,5.93-2.82,11.97-4.17,17.98
			c-2.06,9.16-4.1,18.32-6.26,27.95c9.13,0,17.61,0.19,26.07-0.12c2.42-0.09,5.3-1,7.11-2.53c13.68-11.6,29.6-14.59,46.79-12.35
			c13.16,1.71,19.2,9.88,17.03,22.61C524.76,225.83,523.17,231.77,521.75,238.11z M254.17,213.04c0.01-18.13-13.6-31.73-31.9-31.87
			c-19.31-0.14-35.86,15.67-35.8,34.21c0.05,17.47,14.03,30.99,32.22,31.17C238.24,246.75,254.15,231.71,254.17,213.04z"/>
		<path class="st1" d="M1243,156.01c-2.29,9.63-5.03,19.17-6.71,28.9c-1.1,6.38-3.36,10.08-9.83,12.82
			c-14.55,6.16-25.15,17.81-35.62,29.27c-5.61,6.14-10.73,12.74-16.29,18.94c-2.06,2.3-1.85,4.13-0.57,6.65
			c8.35,16.46,16.83,32.87,24.72,49.56c3.63,7.68,8.41,12.21,17.31,10.89c0.81-0.12,1.66-0.01,2.5,0.04
			c0.32,0.02,0.64,0.15,1.34,0.34c-2.32,10.31-4.55,20.65-7.06,30.92c-0.33,1.33-1.91,2.73-3.26,3.37
			c-15.06,7.17-30.7,8.34-46.68,3.74c-7.84-2.25-14.12-7.23-17.99-14.26c-7.21-13.09-13.74-26.55-20.54-39.86
			c-1.11-2.17-2.11-4.38-2.99-6.21c-10.19,13.73-20.04,27.32-30.27,40.62c-3.83,4.99-8.69,9.17-12.79,13.97
			c-3.65,4.27-7.88,5.68-13.51,5.46c-11.8-0.46-23.63-0.14-35.85-0.14c2.77-12.21,5.41-24.02,8.21-35.8
			c0.25-1.05,1.38-2.36,2.39-2.7c16.2-5.54,28.14-16.89,39.3-29.11c6.84-7.49,13-15.61,19.58-23.35c1.78-2.09,1.8-3.77,0.54-6.22
			c-8.36-16.27-16.86-32.48-24.61-49.03c-3.49-7.45-7.92-11.62-16.41-10.3c-1.11,0.17-2.28-0.1-3.91-0.19
			c2.37-11.07,4.61-21.94,7.13-32.75c0.3-1.27,1.92-2.62,3.24-3.21c14.28-6.37,29.21-7.68,44.48-4.99
			c9.09,1.6,16.09,6.9,20.16,14.98c7.02,13.94,13.3,28.25,19.88,42.4c0.68,1.47,1.34,2.95,2.19,4.81
			c6.39-9.28,12.01-18.51,18.7-26.88c8.39-10.51,17.64-20.34,26.55-30.43c2.57-2.91,5.75-4,9.76-3.87
			c12.3,0.4,24.61,0.44,36.92,0.62C1243,155.34,1243,155.67,1243,156.01z"/>
		<path class="st1" d="M162,315.03c0.68-1.44,1.4-2.87,2.03-4.33c5.87-13.72,16.39-21.25,31.13-22.1
			c13.74-0.79,24.8,4.51,31.28,17.15c10.34,20.15-4.38,45-27.81,47.25c-17.47,1.68-29.74-6.18-35.74-22.88
			c-0.15-0.42-0.59-0.73-0.9-1.09C162,324.36,162,319.69,162,315.03z"/>
		<path class="st2" d="M336.85,102.8c-0.08-0.29-0.04-0.56,0.15-0.8c22,0,44,0,66,0c-0.02,0.35-0.05,0.71-0.07,1.06
			C380.9,102.97,358.88,102.88,336.85,102.8z"/>
		<path class="st1" d="M671.97,331.17c-3.5,15.19-6.84,29.71-10.31,44.77c7.34,0,14.25,0,21.64,0c-2.85,12.16-5.57,23.76-8.31,35.44
			c-36.32,0-72.26,0-108.86,0c2.65-11.92,5.23-23.51,7.86-35.35c3.05,0,5.87,0,8.69,0c8.36-0.01,13.3-3.96,15.16-12.15
			c8.69-38.27,17.38-76.54,26.06-114.82c3.24-14.27,6.45-28.54,9.69-42.81c1.69-7.46-1.49-11.59-9.08-11.69
			c-2.48-0.03-4.97-0.01-8.27-0.01c1.74-8.03,3.34-15.56,5.01-23.08c2.75-12.4,2.74-12.5,15.2-15.62
			c13.34-3.33,26.91-4.82,40.59-3.05c15.79,2.04,23.83,10.31,26.27,26.08c0.2,1.27,0.49,2.53,0.77,3.99
			c5.37-4.84,10.27-9.8,15.73-14.06c18.89-14.74,39.96-22,63.91-16.13c21.86,5.36,34.41,20.91,37.69,42.05
			c7.32,47.28-2.53,90.59-36.17,126.2c-19.84,21-45.51,27.78-73.8,25.63C697.01,345.47,683.73,341.21,671.97,331.17z M678.11,303.42
			c18.07,9.59,46.75,9.5,63.09-14.63c12.86-18.99,16.61-40.36,15.77-62.74c-0.7-18.78-12.65-28.98-31.26-26.98
			c-9.28,1-18.04,4.44-24.87,10.58c-2.91,2.62-3.25,8.35-4.28,12.78C690.33,249.44,684.24,276.48,678.11,303.42z"/>
		<path class="st1" d="M893.97,331.44c-3.47,15.12-6.8,29.64-10.22,44.57c7.32,0,14.12,0,21.59,0c-2.8,12-5.49,23.55-8.23,35.29
			c-36.23,0-72.14,0-108.85,0c2.62-11.86,5.17-23.44,7.79-35.27c3.21,0,6.19,0.01,9.18,0c7.65-0.02,12.84-4.11,14.56-11.65
			c11.98-52.69,23.93-105.38,35.88-158.08c1.74-7.68-1.55-11.68-9.54-11.75c-2.32-0.02-4.64,0-7.71,0c0.34-2.01,0.53-3.58,0.88-5.11
			c1.92-8.6,3.75-17.22,5.92-25.76c0.45-1.79,1.87-4.15,3.4-4.71c16.17-5.95,32.98-8.11,50.06-6.18
			c16.19,1.83,24.11,10.06,26.72,26.16c0.2,1.25,0.46,2.5,0.53,2.85c9.23-6.97,18.12-14.79,28.05-20.92
			c15.75-9.72,33.26-12.81,51.37-8.37c21.75,5.34,34.71,20.56,38,41.75c7.6,48.96-2.24,94-38.99,129.27
			c-26.34,25.28-58.86,28.71-93.11,18.1c-3.12-0.97-6.01-2.82-8.87-4.5C899.68,335.54,897.17,333.63,893.97,331.44z M900.2,303.34
			c14.52,8.44,43.18,10.63,59.96-10.61c16.67-21.11,20.77-45.74,18.22-71.6c-1.27-12.87-9.46-20.26-21.09-21.97
			c-10.73-1.57-20.27,2.05-29.57,6.9c-4.6,2.4-7.48,5.53-7.94,10.95c-0.29,3.44-1.48,6.81-2.26,10.21
			C911.74,252.63,905.96,278.03,900.2,303.34z"/>
		<path class="st3" d="M521.75,238.11c1.42-6.34,3.02-12.28,4.05-18.32c2.17-12.73-3.87-20.89-17.03-22.61
			c-17.19-2.24-33.1,0.75-46.79,12.35c-1.81,1.54-4.69,2.45-7.11,2.53c-8.46,0.3-16.94,0.12-26.07,0.12
			c2.16-9.63,4.2-18.79,6.26-27.95c1.35-6,2.56-12.05,4.17-17.98c0.44-1.61,1.84-3.74,3.26-4.19c36-11.45,72.6-14.67,109.78-6.97
			c5.95,1.23,11.82,3.55,17.27,6.28c19.84,9.95,28.77,29.19,23.81,53.02c-6.07,29.13-13.03,58.08-19.6,87.1
			c-1.74,7.67,1.25,11.5,8.94,11.52c1.98,0.01,3.96,0,6.54,0c-2.34,10.4-4.5,20.41-6.96,30.35c-0.32,1.3-1.96,2.65-3.32,3.26
			c-15.45,6.93-31.59,9.35-48.24,6.02c-12.73-2.54-20.75-10.56-23.87-23.73c-12.17,13.27-26.55,21.4-43.92,23.63
			c-12.21,1.57-24.3,0.95-35.79-4.03c-20.05-8.69-30.18-29.53-26.63-54.5c4.3-30.28,23.35-49.99,55.4-56.96
			C477.69,232.33,499.49,232.84,521.75,238.11z M514.81,267.69c-9.28-0.32-17.73-1.49-26-0.71c-13.69,1.29-22.33,9.89-25.18,23.16
			c-3.58,16.69,5.48,26.88,22.39,24.83c8.62-1.04,17.14-4.8,20.31-12.6C510.51,292.06,511.82,280.58,514.81,267.69z"/>
		<path class="st1" d="M336.85,102.8c22.02,0.09,44.05,0.18,66.07,0.27c-3.4,15.25-6.8,30.49-10.19,45.74
			c-0.36,1.61-0.68,3.22-1.15,5.51c10.8,0,21.2,0,32.28,0c-3.09,13.79-6.01,26.86-9,40.25c-9.71,0-19.18,0.11-28.65-0.06
			c-2.96-0.05-4.45,0.68-5.14,3.78c-6.72,30.37-13.59,60.7-20.36,91.05c-0.54,2.42-0.83,4.94-0.84,7.42
			c-0.03,8.48,3.84,13.42,12.09,15.3c2.73,0.62,5.59,0.79,8.4,0.94c2.81,0.15,5.63,0.03,9.1,0.03c-2.35,10.42-4.9,20.36-6.74,30.42
			c-0.86,4.71-3.15,6.61-7.55,7.63c-17.81,4.14-35.64,4.89-53.34-0.03c-20.87-5.8-32.85-22.28-30.24-43.89
			c2.07-17.1,6.22-33.98,9.88-50.86c4.15-19.18,8.79-38.25,13.19-57.38c0.29-1.24,0.29-2.55,0.47-4.25c-6.45,0-12.56,0-19.59,0
			c3.02-13.61,5.91-26.63,8.91-40.15c6.75,0,13.35,0,20.01,0C328.67,136.94,332.76,119.87,336.85,102.8z"/>
		<path class="st1" d="M254.17,213.04c-0.01,18.67-15.93,33.71-35.48,33.52c-18.19-0.18-32.17-13.7-32.22-31.17
			c-0.06-18.54,16.49-34.36,35.8-34.21C240.57,181.31,254.18,194.91,254.17,213.04z"/>
		<path class="st4" d="M678.11,303.42c6.13-26.95,12.22-53.98,18.46-80.99c1.02-4.43,1.36-10.16,4.28-12.78
			c6.82-6.14,15.59-9.58,24.87-10.58c18.61-2,30.56,8.2,31.26,26.98c0.84,22.38-2.91,43.75-15.77,62.74
			C724.86,312.92,696.18,313.01,678.11,303.42z"/>
		<path class="st4" d="M900.2,303.34c5.76-25.31,11.54-50.71,17.32-76.11c0.77-3.4,1.97-6.77,2.26-10.21
			c0.46-5.42,3.34-8.55,7.94-10.95c9.3-4.86,18.84-8.48,29.57-6.9c11.63,1.71,19.83,9.1,21.09,21.97
			c2.54,25.85-1.55,50.48-18.22,71.6C943.39,313.97,914.72,311.78,900.2,303.34z"/>
		<path class="st5" d="M514.81,267.69c-2.99,12.89-4.29,24.37-8.47,34.68c-3.17,7.81-11.68,11.56-20.31,12.6
			c-16.91,2.05-25.97-8.15-22.39-24.83c2.85-13.27,11.49-21.86,25.18-23.16C497.08,266.2,505.52,267.36,514.81,267.69z"/>
	</g>
</g>
</svg>
