<?xml version="1.0" encoding="utf-8"?>
<!-- Generator: Adobe Illustrator 24.1.2, SVG Export Plug-In . SVG Version: 6.00 Build 0)  -->
<svg version="1.1" id="Layer_1" xmlns="http://www.w3.org/2000/svg" xmlns:xlink="http://www.w3.org/1999/xlink" x="0px" y="0px"
	 viewBox="0 0 1920 500" style="enable-background:new 0 0 1920 500;" xml:space="preserve">
<style type="text/css">
	.st0{fill:#FE003C;}
	.st1{fill:#FE7F9C;}
</style>
<g>
	<g>
		<path class="st0" d="M1.6,339.1c12.8-36.7,46.9-47.7,75.9-42.1c20.8,4,35.8,14.8,42.6,36.6c7.2,23-9.5,46.5-25,54.8
			c-18,9.7-36.9,12.4-56.8,6.3C20.9,389.3,9.1,378.3,3,361.3c-0.2-0.6-0.9-1.1-1.4-1.6C1.6,352.8,1.6,346,1.6,339.1z"/>
		<path class="st1" d="M311.9,2.9c-0.2-0.5-0.1-0.9,0.2-1.4c39.4,0,78.8,0,118.2,0c-0.5,0.5-1.1,1.1-1.6,1.6
			C389.8,3.1,350.9,3,311.9,2.9z"/>
		<path class="st0" d="M1300.9,363.9c-6,23-12,45.9-18.3,69.7c13.2,0,25.6,0,38.6,0c-3.6,13.6-7.1,26.2-10.3,39
			c-4.3,17.2-4.2,17.3-21.8,17.3c-55.4,0-110.8,0-166.3,0c-2.9,0-5.7,0-10.2,0c5.1-19.2,9.9-37.4,14.8-56.1c5,0,10,0,14.9,0
			c16,0,23.8-6.4,27.5-21.7c6.6-27.1,13.4-54.2,20.1-81.3c4.2-16.9,8.6-33.8,12.9-50.7c5.1-20.2,10.3-40.4,15.4-60.6
			c4.5-17.6,9.2-35.2,13.5-52.9c3.1-12.8-1.9-19-15.1-19.1c-4.7,0-9.4,0-15.6,0c2.9-10.2,5.5-19.5,8.1-28.8c1-3.5,2.4-7.1,2.5-10.7
			c0.2-12.7,7.2-17.6,18.8-20.2c25.5-5.6,51.2-8.9,77.3-6.5c28,2.5,46.8,15.7,49.4,48c2.5-1.8,4.8-3,6.6-4.7
			c33.5-31.6,72.5-49.4,119.3-45.8c30.4,2.3,55.3,14.6,72.2,41.8c13.3,21.4,15.7,44.9,14.2,68.6c-1.4,22.1-4.3,44.5-9.8,66
			c-5.5,21.5-15.7,41.8-28.7,60c-17.7,24.6-39.7,44.6-67.7,57.1c-29.6,13.2-60.9,17.4-93,14.8c-23.7-1.9-46.6-6.9-65.9-22.2
			C1303.6,364.3,1302.1,364.2,1300.9,363.9z M1312.1,319.8c19,8.3,38.8,10.2,59.1,7.5c20-2.7,36.2-12.7,49.7-27.2
			c13.9-15,22-33.7,26.3-53.1c3.8-17.2,4.4-35.3,4.4-53.1c0.1-19-15.5-35.1-34.8-38.4c-23.4-4.1-43.8,3.3-63.5,14.6
			c-1.5,0.8-3.1,2.3-3.6,3.8c-2.3,6.5-4.5,13.2-6.2,19.9c-4.5,16.8-8.8,33.7-13,50.6C1324.3,269.2,1318.3,294,1312.1,319.8z"/>
		<path class="st0" d="M718.5,489.3c5.1-19.2,9.9-37.3,14.8-55.6c5.3,0,10.3,0,15.2,0c16,0,23.5-6.4,27.2-22
			c6.6-27.4,13.4-54.7,20.3-82.1c4.3-17.1,8.8-34.2,13.2-51.4c5-19.7,10-39.4,15.1-59c4.1-16.1,8.4-32.2,12.5-48.3
			c0.3-1.3,0.3-2.7,0.9-3.8c4.6-9.7-0.5-18.9-11.1-19.5c-6-0.3-12-0.1-20-0.1c2.4-7.2,4.9-13.2,6.5-19.5c2.4-9.1,4.7-18.3,6.2-27.6
			c0.9-6.1,3.5-8.6,9.4-10.3c28.9-8,58.1-11.4,88-8.4c24.3,2.5,44.8,17,45.8,44.7c0,0.7,0.5,1.5,1,3.1c7.2-6,13.9-11.9,21-17.4
			c36.8-28.4,77.7-40.7,123.7-30.1c22,5.1,39.5,17.5,52.1,37.2c15.4,24,16.6,50.4,15,77c-1.2,19-4.3,38.1-9,56.6
			c-5.6,22.2-15.6,43.2-28.9,61.7c-40.2,55.8-95.8,78.2-163.5,72.3c-22.7-2-44.4-7.2-63-21.4c-1.1-0.9-2.8-1-4.3-1.6
			c-6.1,23.3-12.1,46.2-18.2,69.7c13.2,0,25.5,0,38.5,0c-4.9,18.8-9.7,37-14.6,55.7C848.2,489.3,784,489.3,718.5,489.3z
			 M917.6,320.7c9.3,2.3,18.3,5.3,27.4,6.6c25.5,3.5,49.6-0.2,70.5-16.7c18.6-14.7,28.9-35,36.1-56.8c6.3-19.1,7.3-39.1,6.1-59.2
			c-1.3-20.9-15.4-35.6-36-39.2c-16.4-2.9-31.4,1.5-46.9,6.3c-16.1,5.1-22.2,16.6-25.6,31.5c-4,17.2-8.7,34.2-13,51.4
			C930.1,269.4,924.1,294.2,917.6,320.7z"/>
		<path class="st0" d="M475.1,175.3c6-23.2,12.1-45,17.1-67.1c1.8-8.1,4.9-11.8,13.4-14.1C565.5,78.5,626,74.5,687.2,83.7
			c19.8,3,38.8,9.3,55.1,21.3c14.1,10.4,22.5,24.6,25.6,42.5c2.5,13.9,0.2,26.9-2.9,40c-7.1,30.5-14.8,60.9-22.4,91.2
			c-3.3,13.1-7.1,26-10.4,39.1c-2.4,9.8,2.9,16.5,12.9,16.6c4.7,0.1,9.4,0,15.1,0c-3.7,13.9-7.7,27-10.5,40.3
			c-1.6,7.8-4.8,12-12.5,14.6c-26.6,9.1-53.7,12.6-81.3,7.5c-17.9-3.3-32.9-11.7-39.5-30.5c-0.7-2.1-2.3-3.9-3.8-6.2
			c-18.2,17.8-39.6,29.6-64.4,34.4c-31.1,6.1-61.7,5.1-90-11c-6.2-3.5-12.3-8.3-16.7-13.9c-20.4-25.7-22.6-55.3-12.3-84.6
			c14.1-40.1,47.1-59.4,86.4-68.8c40.9-9.8,82.2-8.8,125.3-0.1c2.4-11.7,5.8-23.4,7-35.3c1.5-14.3-3.8-22-18.6-26
			c-33.9-9.2-66.4-5.2-95.4,16.7c-2.4,1.8-5.5,3.5-8.4,3.5C509.3,175.5,493,175.3,475.1,175.3z M568.3,338.8
			c7.7-1.4,14-1.6,19.5-3.7c9.5-3.6,20.8-7.1,24.5-17c5.9-15.7,9.2-32.5,13.3-48.9c0.4-1.5-1.9-5.2-3.3-5.4
			c-28.3-4.4-56.2-8-78.1,18c-11.9,14.1-10.7,41.8,4.9,51C555,336.4,562.6,337.1,568.3,338.8z"/>
		<path class="st0" d="M1540.7,394.3c4.7-19.4,9.1-37.9,13.8-56.2c0.4-1.7,2.7-3.6,4.5-4.2c19.6-6.6,37.2-16.5,52.2-30.7
			c14.3-13.6,28.1-27.6,42.1-41.4c0.6-0.5,1-1.3,1.5-1.8c14-13.6,14.2-17.5,1.6-32.7c-0.8-1-1.5-2-2.1-3.2
			c-6.7-12.3-13.3-24.7-20-37c-5.5-10-11-20-16.8-29.8c-3.5-5.9-8.5-9.7-15.7-9.8c-5.7-0.1-11.3,0-16.4,0
			c3.8-17.1,7.6-33.2,10.9-49.5c0.8-4.2,2.6-5.8,6.5-7.4c25.6-10.3,51.9-12.1,78.8-8.1c16.5,2.4,29.6,11,37.7,25.3
			c10.7,18.9,20.2,38.5,30.2,57.8c2.6,4.9,5.2,9.8,7.9,14.8c10.2-13,19.2-26,29.6-37.7c15.9-17.8,32.6-34.9,49.4-51.9
			c4.5-4.5,10.4-6.9,17.6-6.7c18.9,0.5,37.8,0.2,56.7,0.2c2.6,0,5.1,0,9.5,0c-4.4,16.7-10.1,32-12.2,47.8c-1.7,13-8.8,17-19.4,21.3
			c-22.7,9.4-40.9,25.6-58.2,42.8c-11.4,11.3-22.5,23-33.5,34.7c-1.1,1.2-1.6,4.3-0.8,5.7c5.6,9.9,11.8,19.4,17.3,29.3
			c7.6,13.6,14.8,27.5,22.3,41.2c3.6,6.6,6.8,13.7,11.8,19c3.9,4.1,10.3,6.5,16,8.1c4.6,1.3,9.8,0.3,16.1,0.3
			c-4.6,16.6-8.8,32.4-13.5,48.1c-0.8,2.6-3.2,5.7-5.6,6.7c-31.1,12.4-62.7,14.5-94,1.3c-6-2.5-11.7-7.2-15.9-12.3
			c-6.9-8.4-12.8-17.6-18.2-27c-9.7-16.8-18.7-34-28.3-51.8c-3.1,3.4-6.1,6.6-8.8,10c-11.6,14.7-22.2,30.2-34.7,44
			c-12.5,13.8-26.7,26-40.2,38.8c-1.3,1.3-3.7,2.1-5.6,2.1C1590.1,394.4,1565.5,394.3,1540.7,394.3z"/>
		<path class="st0" d="M311.9,2.9c38.9,0.1,77.9,0.1,116.8,0.2c-6,24.3-12,48.6-17.9,72.9c-0.6,2.3-0.9,4.6-1.6,7.9
			c19,0,37.5,0,57.5,0c-5.7,21.8-11,42.3-16.6,63.6c-14.3,0-28.7,0-43,0c-15.8,0-15.9,0-19.6,15.7c-3.1,12.8-5.8,25.6-8.9,38.3
			c-5.2,21.5-10.6,43-16.1,64.4c-2.7,10.5-5.7,21-8.5,31.5c-0.4,1.5-0.7,3.1-0.9,4.6c-2.2,19,4.4,28.1,23.4,30.9
			c9.3,1.4,18.8,1.3,28.2,1.9c-2.6,10.8-5.3,21.8-8,32.7c-1,4.3-2.6,8.7-2.9,13c-0.5,9.1-5.9,12.1-13.9,13.7
			c-35.2,7-70.4,8.6-104.9-3.2c-19.2-6.5-33.6-18.6-40.5-39.3c-4.5-13.5-5.6-26.7-2.7-39.9c4.6-21.3,11.3-42.1,16.7-63.2
			c3.2-12.4,5.5-25.1,8.6-37.6c4.6-18.7,9.6-37.3,14.4-56c0.6-2.2,0.8-4.5,1.4-7.8c-11.6,0-22.4,0-35.2,0
			c3.7-12.9,7.1-24.5,10.3-36.2c1.6-6.1,3.2-12.2,4-18.4c0.9-6.5,3.5-9.4,10.6-8.8c9.1,0.7,18.3,0.2,27.2,0.2
			C297.6,56.7,304.8,29.8,311.9,2.9z"/>
		<path class="st0" d="M166.3,175.7c-2.3,21.2-12.3,36.3-30,45.5c-18.5,9.7-38.2,11.5-57.8,4c-25.5-9.8-41.5-34.5-30.2-62.1
			c8-19.7,24.7-31,45.7-35.1c21-4.1,40.3-0.2,56.5,13.9C160.7,150.8,164.3,163.5,166.3,175.7z"/>
	</g>
</g>
</svg>
